<svg width="19" height="15" viewBox="0 0 19 15" fill="none" xmlns="http://www.w3.org/2000/svg">
<path opacity="0.3" d="M18.3035 2.02411C17.6285 2.30975 16.9126 2.49727 16.1795 2.58046C16.9419 2.14259 17.5284 1.45061 17.8044 0.624877C17.0785 1.03656 16.2843 1.32661 15.4562 1.48248C14.7572 0.76909 13.7798 0.365008 12.7573 0.366705C10.7159 0.366705 9.05901 1.94871 9.05901 3.90022C9.05901 4.17752 9.09167 4.44778 9.15561 4.70585C6.08179 4.55824 3.35755 3.15198 1.53327 1.01362C1.21473 1.53491 1.03304 2.14259 1.03304 2.79038C1.03304 4.01585 1.68564 5.09766 2.6777 5.7315C2.09034 5.71429 1.51585 5.56271 1.00245 5.28945V5.33452C1.00245 7.04621 2.27729 8.47457 3.96818 8.79989C3.4236 8.94082 2.85262 8.96149 2.29845 8.86034C2.76924 10.2645 4.13538 11.286 5.7529 11.3157C4.48749 12.262 2.8932 12.828 1.16022 12.828C0.865549 12.8277 0.571135 12.8112 0.278442 12.7785C1.91482 13.7809 3.85905 14.3667 5.94724 14.3667C12.7492 14.3667 16.4681 8.9808 16.4681 4.31018C16.4681 4.15741 16.4681 4.00464 16.4566 3.85296C17.1803 3.35257 17.8052 2.73334 18.3023 2.02411H18.3035Z" fill="white"/>
</svg>
